<svg width="171" height="36" viewBox="0 0 171 36" fill="none" xmlns="http://www.w3.org/2000/svg">
  <defs>
    <linearGradient id="brandGrad" x1="0" y1="0" x2="36" y2="36" gradientUnits="userSpaceOnUse">
      <stop offset="0%" stop-color="#3C50E0"/>
      <stop offset="100%" stop-color="#8B5CF6"/>
    </linearGradient>
  </defs>

  <!-- Modern App Icon -->
  <rect x="0" y="0" width="36" height="36" rx="10" fill="url(#brandGrad)"/>
  
  <!-- Shopping Bag Handle -->
  <path d="M12 14C12 10.6863 14.6863 8 18 8C21.3137 8 24 10.6863 24 14" stroke="white" stroke-width="2.5" stroke-linecap="round"/>
  
  <!-- Shopping Bag Body -->
  <path d="M8 14C8 12.8954 8.89543 12 10 12H26C27.1046 12 28 12.8954 28 14V25C28 26.6569 26.6569 28 25 28H11C9.34315 28 8 26.6569 8 25V14Z" fill="white"/>
  
  <!-- AI Sparkle inside bag -->
  <path d="M18 15.5L19.2 18.2L22 19.5L19.2 20.8L18 23.5L16.8 20.8L14 19.5L16.8 18.2L18 15.5Z" fill="#3C50E0"/>

  <!-- Brand Typography -->
  <text x="44" y="26" font-family="'Be Vietnam Pro', system-ui, sans-serif" font-size="22" font-weight="800" fill="#1C274C" letter-spacing="-0.3">
    D9U<tspan font-weight="500" fill="#3C50E0">Store</tspan>
  </text>
</svg>
